G04 DipTrace 3.0.0.2*
G04 bottom_silk_gamepad2usb.gbr*
%MOMM*%
G04 #@! TF.FileFunction,Legend,Bot*
G04 #@! TF.Part,Single*
%ADD60C,0.27451*%
%ADD61C,0.23529*%
%FSLAX35Y35*%
G04*
G71*
G90*
G75*
G01*
G04 BotSilk*
%LPD*%
X2743584Y2798264D2*
D60*
X2624481Y2747164D1*
X2743584Y2696260D1*
X2803135Y2641358D2*
X2624481D1*
X2743584Y2556257D2*
X2658483Y2641358D1*
X2692484Y2607357D2*
X2624481Y2547806D1*
X2641580Y2484453D2*
X2632933Y2492904D1*
X2624481Y2484453D1*
X2632933Y2475805D1*
X2641580Y2484453D1*
X2718034Y2318703D2*
X2735133Y2335802D1*
X2743584Y2352901D1*
Y2378254D1*
X2735133Y2395353D1*
X2718034Y2412255D1*
X2692484Y2420903D1*
X2675581D1*
X2650031Y2412255D1*
X2633129Y2395353D1*
X2624481Y2378254D1*
Y2352901D1*
X2633129Y2335802D1*
X2650031Y2318703D1*
X2743584Y2221349D2*
X2735133Y2238251D1*
X2718034Y2255350D1*
X2692484Y2263801D1*
X2675581D1*
X2650031Y2255350D1*
X2633129Y2238251D1*
X2624481Y2221349D1*
Y2195799D1*
X2633129Y2178700D1*
X2650031Y2161798D1*
X2675581Y2153150D1*
X2692484D1*
X2718034Y2161798D1*
X2735133Y2178700D1*
X2743584Y2195799D1*
Y2221349D1*
Y2098248D2*
X2624481D1*
X2709583D2*
X2735133Y2072698D1*
X2743584Y2055599D1*
Y2030246D1*
X2735133Y2013147D1*
X2709583Y2004696D1*
X2624481D1*
X2709583D2*
X2735133Y1979146D1*
X2743584Y1962047D1*
Y1936693D1*
X2735133Y1919595D1*
X2709583Y1910947D1*
X2624481D1*
Y1856045D2*
X2802938Y1736943D1*
X2735133Y1580037D2*
X2598931D1*
X2573578Y1588488D1*
X2564930Y1596939D1*
X2556479Y1614038D1*
Y1639588D1*
X2564930Y1656491D1*
X2709583Y1580037D2*
X2726485Y1596939D1*
X2735133Y1614038D1*
Y1639588D1*
X2726485Y1656491D1*
X2709583Y1673589D1*
X2684033Y1682041D1*
X2666934D1*
X2641580Y1673589D1*
X2624481Y1656491D1*
X2616030Y1639588D1*
Y1614038D1*
X2624481Y1596939D1*
X2641580Y1580037D1*
X2743584Y1423132D2*
X2624481D1*
X2718034D2*
X2735133Y1440034D1*
X2743584Y1457133D1*
Y1482486D1*
X2735133Y1499585D1*
X2718034Y1516487D1*
X2692484Y1525135D1*
X2675581D1*
X2650031Y1516487D1*
X2633129Y1499585D1*
X2624481Y1482486D1*
Y1457133D1*
X2633129Y1440034D1*
X2650031Y1423132D1*
X2743584Y1368230D2*
X2624481D1*
X2709583D2*
X2735133Y1342680D1*
X2743584Y1325581D1*
Y1300227D1*
X2735133Y1283129D1*
X2709583Y1274677D1*
X2624481D1*
X2709583D2*
X2735133Y1249127D1*
X2743584Y1232029D1*
Y1206675D1*
X2735133Y1189576D1*
X2709583Y1180929D1*
X2624481D1*
X2692484Y1126027D2*
Y1024023D1*
X2709583D1*
X2726681Y1032474D1*
X2735133Y1040926D1*
X2743584Y1058024D1*
Y1083574D1*
X2735133Y1100477D1*
X2718034Y1117576D1*
X2692484Y1126027D1*
X2675581D1*
X2650031Y1117575D1*
X2633129Y1100477D1*
X2624481Y1083574D1*
Y1058024D1*
X2633129Y1040925D1*
X2650031Y1024023D1*
X2743584Y969121D2*
X2564930D1*
X2718034D2*
X2734936Y952022D1*
X2743584Y935120D1*
Y909570D1*
X2734936Y892471D1*
X2718034Y875569D1*
X2692484Y866921D1*
X2675385D1*
X2650031Y875569D1*
X2632933Y892471D1*
X2624481Y909570D1*
Y935120D1*
X2632933Y952022D1*
X2650031Y969121D1*
X2743584Y710016D2*
X2624481D1*
X2718034D2*
X2735133Y726918D1*
X2743584Y744017D1*
Y769370D1*
X2735133Y786469D1*
X2718034Y803372D1*
X2692484Y812019D1*
X2675581D1*
X2650031Y803372D1*
X2633129Y786469D1*
X2624481Y769370D1*
Y744017D1*
X2633129Y726918D1*
X2650031Y710016D1*
X2803135Y553110D2*
X2624481D1*
X2718034D2*
X2735133Y570013D1*
X2743584Y587112D1*
Y612662D1*
X2735133Y629564D1*
X2718034Y646663D1*
X2692484Y655114D1*
X2675581D1*
X2650031Y646663D1*
X2633129Y629564D1*
X2624481Y612662D1*
Y587112D1*
X2633129Y570013D1*
X2650031Y553110D1*
X2760486Y489561D2*
X2768937D1*
X2786036Y481110D1*
X2794487Y472658D1*
X2802938Y455560D1*
Y421558D1*
X2794487Y404656D1*
X2786036Y396205D1*
X2768937Y387557D1*
X2752035D1*
X2734936Y396205D1*
X2709582Y413107D1*
X2624481Y498208D1*
Y379106D1*
X2743584Y324204D2*
X2658483D1*
X2633129Y315753D1*
X2624481Y298654D1*
Y273104D1*
X2633129Y256202D1*
X2658482Y230652D1*
X2743584D2*
X2624481D1*
X2718034Y82198D2*
X2735132Y90649D1*
X2743584Y116199D1*
Y141749D1*
X2735132Y167299D1*
X2718034Y175750D1*
X2701131Y167299D1*
X2692484Y150200D1*
X2684032Y107748D1*
X2675581Y90649D1*
X2658482Y82198D1*
X2650031D1*
X2633129Y90649D1*
X2624481Y116199D1*
Y141749D1*
X2633129Y167299D1*
X2650031Y175750D1*
X2803135Y27296D2*
X2624481D1*
X2718034D2*
X2735132Y10197D1*
X2743584Y-6705D1*
Y-32255D1*
X2735133Y-49158D1*
X2718034Y-66256D1*
X2692484Y-74708D1*
X2675581D1*
X2650031Y-66256D1*
X2633129Y-49158D1*
X2624481Y-32255D1*
Y-6705D1*
X2633129Y10197D1*
X2650031Y27296D1*
X3022483Y2388703D2*
D61*
X2869352D1*
Y2337659D1*
X2876764Y2315759D1*
X2891252Y2301103D1*
X2905908Y2293859D1*
X2927639Y2286615D1*
X2964196D1*
X2986096Y2293859D1*
X3000583Y2301103D1*
X3015239Y2315759D1*
X3022483Y2337659D1*
Y2388703D1*
X2927639Y2239556D2*
Y2152125D1*
X2942296D1*
X2956952Y2159369D1*
X2964196Y2166613D1*
X2971439Y2181269D1*
Y2203169D1*
X2964196Y2217656D1*
X2949539Y2232313D1*
X2927639Y2239556D1*
X2913152D1*
X2891252Y2232313D1*
X2876764Y2217656D1*
X2869352Y2203169D1*
Y2181269D1*
X2876764Y2166613D1*
X2891252Y2152125D1*
X2949539Y2024878D2*
X2964196Y2032122D1*
X2971439Y2054022D1*
Y2075922D1*
X2964196Y2097822D1*
X2949539Y2105066D1*
X2935052Y2097822D1*
X2927639Y2083166D1*
X2920396Y2046778D1*
X2913152Y2032122D1*
X2898496Y2024878D1*
X2891252D1*
X2876764Y2032122D1*
X2869352Y2054022D1*
Y2075922D1*
X2876764Y2097822D1*
X2891252Y2105066D1*
X3022483Y1977820D2*
X3015239Y1970576D1*
X3022483Y1963163D1*
X3029896Y1970576D1*
X3022483Y1977820D1*
X2971439Y1970576D2*
X2869352D1*
X2964196Y1828673D2*
X2847452D1*
X2825720Y1835917D1*
X2818308Y1843161D1*
X2811064Y1857817D1*
Y1879717D1*
X2818308Y1894205D1*
X2942296Y1828673D2*
X2956783Y1843161D1*
X2964196Y1857817D1*
Y1879717D1*
X2956783Y1894205D1*
X2942296Y1908861D1*
X2920396Y1916105D1*
X2905739D1*
X2884008Y1908861D1*
X2869352Y1894205D1*
X2862108Y1879717D1*
Y1857817D1*
X2869352Y1843161D1*
X2884008Y1828673D1*
X2971439Y1781614D2*
X2869352D1*
X2942296D2*
X2964196Y1759714D1*
X2971439Y1745058D1*
Y1723326D1*
X2964196Y1708670D1*
X2942296Y1701426D1*
X2869352D1*
X2927639Y1654368D2*
Y1566936D1*
X2942296D1*
X2956952Y1574180D1*
X2964196Y1581424D1*
X2971439Y1596080D1*
Y1617980D1*
X2964196Y1632468D1*
X2949539Y1647124D1*
X2927639Y1654368D1*
X2913152D1*
X2891252Y1647124D1*
X2876764Y1632468D1*
X2869352Y1617980D1*
Y1596080D1*
X2876764Y1581424D1*
X2891252Y1566936D1*
X3022483Y1432446D2*
X2869352D1*
X2949539D2*
X2964196Y1446933D1*
X2971439Y1461590D1*
Y1483490D1*
X2964196Y1497977D1*
X2949539Y1512633D1*
X2927639Y1519877D1*
X2913152D1*
X2891252Y1512633D1*
X2876764Y1497977D1*
X2869352Y1483490D1*
Y1461590D1*
X2876764Y1446933D1*
X2891252Y1432446D1*
X3022483Y1237251D2*
X3015239Y1230007D1*
X3022483Y1222595D1*
X3029895Y1230007D1*
X3022483Y1237251D1*
X2971439Y1230007D2*
X2869352D1*
X2971439Y1175536D2*
X2869352D1*
X2942296D2*
X2964195Y1153636D1*
X2971439Y1138980D1*
Y1117249D1*
X2964195Y1102592D1*
X2942296Y1095349D1*
X2869352D1*
X2949539Y900154D2*
Y834622D1*
X2956952Y812722D1*
X2964195Y805310D1*
X2978683Y798066D1*
X2993339D1*
X3007827Y805310D1*
X3015239Y812722D1*
X3022483Y834622D1*
Y900154D1*
X2869352D1*
X2949539Y849110D2*
X2869352Y798066D1*
X2971439Y751007D2*
X2898495D1*
X2876764Y743764D1*
X2869352Y729107D1*
Y707207D1*
X2876764Y692720D1*
X2898495Y670820D1*
X2971439D2*
X2869352D1*
X2949539Y543573D2*
X2964195Y550817D1*
X2971439Y572717D1*
Y594617D1*
X2964195Y616517D1*
X2949539Y623761D1*
X2935052Y616517D1*
X2927639Y601861D1*
X2920395Y565473D1*
X2913152Y550817D1*
X2898495Y543573D1*
X2891252D1*
X2876764Y550817D1*
X2869352Y572717D1*
Y594617D1*
X2876764Y616517D1*
X2891252Y623761D1*
X2949539Y416327D2*
X2964195Y423571D1*
X2971439Y445471D1*
Y467371D1*
X2964195Y489271D1*
X2949539Y496514D1*
X2935052Y489271D1*
X2927639Y474614D1*
X2920395Y438227D1*
X2913152Y423571D1*
X2898495Y416327D1*
X2891252D1*
X2876764Y423571D1*
X2869352Y445471D1*
Y467371D1*
X2876764Y489271D1*
X2891252Y496514D1*
X3022483Y369268D2*
X3015239Y362024D1*
X3022483Y354612D1*
X3029895Y362024D1*
X3022483Y369268D1*
X2971439Y362024D2*
X2869352D1*
X2971439Y220122D2*
X2869352D1*
X2949539D2*
X2964196Y234609D1*
X2971439Y249266D1*
Y270997D1*
X2964195Y285653D1*
X2949539Y300141D1*
X2927639Y307553D1*
X2913152D1*
X2891252Y300141D1*
X2876764Y285653D1*
X2869352Y270997D1*
Y249265D1*
X2876764Y234609D1*
X2891252Y220122D1*
M02*
