G04 DipTrace 3.0.0.2*
G04 top_mask_gamepad2usb.gbr*
%MOMM*%
G04 #@! TF.FileFunction,Soldermask,Top*
G04 #@! TF.Part,Single*
%AMOUTLINE1*
4,1,4,
-0.84997,0.75,
0.84997,0.75,
0.84997,-0.75,
-0.84997,-0.75,
-0.84997,0.75,
0*%
%AMOUTLINE4*
4,1,4,
-0.75,-0.85,
-0.75,0.85,
0.75,0.85,
0.75,-0.85,
-0.75,-0.85,
0*%
%ADD34C,2.2*%
%ADD36R,1.9X0.7*%
%ADD38R,0.7X1.9*%
%ADD40R,1.5X1.7*%
%ADD46R,2.2X4.2*%
%ADD48O,2.2X3.2*%
%ADD50O,3.2X2.2*%
%ADD52R,1.8X2.0*%
%ADD54R,2.2X1.2*%
%ADD56R,1.7X1.5*%
%ADD64OUTLINE1*%
%ADD67OUTLINE4*%
%FSLAX35Y35*%
G04*
G71*
G90*
G75*
G01*
G04 TopMask*
%LPD*%
D56*
X-1587667Y603313D3*
Y793313D3*
Y317013D3*
Y127013D3*
D64*
X-2302117Y-396917D3*
Y-206917D3*
X-2079843Y-396917D3*
Y-206917D3*
X-1857570Y-396917D3*
Y-206917D3*
D54*
X-2968937Y-920847D3*
Y-1260847D3*
D52*
X-2635447Y349287D3*
X-2915447D3*
X-2635447Y95260D3*
X-2915447D3*
D50*
X-3064197Y1921077D3*
D48*
X-1873447Y2778417D3*
D46*
X-2476707Y-1095490D3*
D50*
X-1270133Y1286010D3*
D46*
X-2222707Y-1095490D3*
D48*
X-2651403Y2778417D3*
D46*
X-1968707Y-1095490D3*
D50*
X-1270133Y1762310D3*
D46*
X-1714707Y-1095490D3*
D48*
X-2349747Y2778417D3*
D50*
X-1270133Y2222733D3*
Y1047860D3*
X-3064197Y2159227D3*
X-1270133Y2460883D3*
X-3064197Y2397377D3*
X-1270133Y1524160D3*
X-3064197Y2635527D3*
X-1270133Y2000460D3*
Y2699033D3*
D67*
X-2968857Y-285780D3*
X-2778857D3*
D40*
X-2873597Y587437D3*
X-2683597D3*
X-2870483Y809713D3*
X-2680483D3*
D38*
X-2429130Y1460653D3*
X-2349130D3*
X-2269130D3*
X-2189130D3*
X-2109130D3*
X-2029130D3*
X-1949130D3*
X-1869130D3*
D36*
X-1729130Y1600653D3*
Y1680653D3*
Y1760653D3*
Y1840653D3*
Y1920653D3*
Y2000653D3*
Y2080653D3*
Y2160653D3*
D38*
X-1869130Y2300653D3*
X-1949130D3*
X-2029130D3*
X-2109130D3*
X-2189130D3*
X-2269130D3*
X-2349130D3*
X-2429130D3*
D36*
X-2569130Y2160653D3*
Y2080653D3*
Y2000653D3*
Y1920653D3*
Y1840653D3*
Y1760653D3*
Y1680653D3*
Y1600653D3*
D34*
X-2016337Y698573D3*
Y215973D3*
M02*
