G04 DipTrace 3.0.0.2*
G04 top_gamepad2usb.gbr*
%MOMM*%
G04 #@! TF.FileFunction,Copper,L1,Top*
G04 #@! TF.Part,Single*
%AMOUTLINE0*
4,1,4,
-0.74997,0.65,
0.74997,0.65,
0.74997,-0.65,
-0.74997,-0.65,
-0.74997,0.65,
0*%
%AMOUTLINE3*
4,1,4,
-0.65,-0.75,
-0.65,0.75,
0.65,0.75,
0.65,-0.75,
-0.65,-0.75,
0*%
G04 #@! TA.AperFunction,CopperBalancing*
%ADD14C,0.5*%
G04 #@! TA.AperFunction,ComponentPad*
%ADD15C,1.0*%
%ADD17R,1.5X1.3*%
%ADD19R,2.0X1.0*%
%ADD20R,1.6X1.8*%
%ADD21O,3.0X2.0*%
%ADD22O,2.0X3.0*%
G04 #@! TA.AperFunction,ComponentPad*
%ADD23R,2.0X4.0*%
%ADD24C,3.0*%
%ADD25C,3.0*%
%ADD26R,1.3X1.5*%
%ADD28R,0.5X1.7*%
%ADD29R,1.7X0.5*%
G04 #@! TA.AperFunction,ComponentPad*
%ADD30C,2.0*%
%ADD63OUTLINE0*%
%ADD66OUTLINE3*%
%FSLAX35Y35*%
G04*
G71*
G90*
G75*
G01*
G04 Top*
%LPD*%
X-2569130Y2000653D2*
D14*
X-2762733D1*
X-2921307Y2159227D1*
X-3064197D1*
X-2569130Y2080653D2*
X-2699843D1*
X-2794293Y2175103D1*
Y2302117D1*
X-2889553Y2397377D1*
X-3064197D1*
X-2569130Y2160653D2*
Y2235720D1*
X-2968937Y2635527D1*
X-3064197D1*
X-2569130Y1920653D2*
X-3064197Y1921077D1*
X-1270133Y1047860D2*
X-1492407D1*
X-1729130Y1284583D1*
Y1600653D1*
Y1680653D2*
X-1617147D1*
X-1571790Y1635297D1*
Y1397147D1*
X-1444777Y1270133D1*
X-1270133D1*
Y1286010D1*
X-1729130Y1760653D2*
X-1570133D1*
X-1381270Y1571790D1*
X-1270133D1*
Y1524160D1*
X-1729130Y1840653D2*
X-1507243D1*
X-1428900Y1762310D1*
X-1283930D1*
X-1270133D1*
X-1729130Y1920653D2*
X-1524583D1*
X-1428900Y2016337D1*
X-1302733D1*
X-1286857Y2000460D1*
X-1270133D1*
X-1729130Y2000653D2*
X-1571597D1*
X-1349517Y2222733D1*
X-1270133D1*
Y2460883D2*
Y2476760D1*
X-1444777D1*
X-1555913Y2365623D1*
Y2143350D1*
X-1618610Y2080653D1*
X-1729130D1*
Y2160653D2*
Y2430557D1*
X-1444777Y2714910D1*
X-1270133D1*
Y2699033D1*
X-2109130Y1460653D2*
Y1301887D1*
X-2269130D1*
Y1460653D1*
Y2079843D1*
X-2189130D1*
Y2300653D1*
X-1587667Y317013D2*
Y603313D1*
X-2189130Y2300653D2*
Y2494487D1*
X-2190980Y2496337D1*
Y2572020D1*
X-2270363Y1206627D2*
X-2269130Y1301887D1*
X-2569130Y1840653D2*
X-2763580D1*
X-3016567Y1587667D1*
Y1476530D1*
X-1869130Y2300653D2*
Y2774100D1*
X-1873447Y2778417D1*
X-2651403D2*
Y2619650D1*
X-2429130Y2397377D1*
Y2300653D1*
X-2349747Y2778417D2*
X-2349130Y2300653D1*
X-1869130Y1460653D2*
Y956917D1*
X-2016337Y809710D1*
Y698573D1*
X-1587667Y793313D2*
X-1905720D1*
X-2000460Y698573D1*
X-2016337D1*
X-1949130Y1460653D2*
Y1130943D1*
X-2175103Y904970D1*
Y349287D1*
X-2063967Y238150D1*
X-2016337D1*
Y215973D1*
X-1587667Y127013D2*
X-1936953D1*
X-2016337Y206397D1*
Y215973D1*
X-1968707Y-1095490D2*
Y-809710D1*
X-2048090Y-730327D1*
X-2365623D1*
X-2619570Y-476380D1*
Y95260D1*
X-2572020D1*
X-2508513Y158767D1*
Y730327D1*
X-2587900Y809713D1*
X-2680483D1*
X-2635447Y95260D2*
X-2619570D1*
X-2870483Y809713D2*
Y908163D1*
X-2569130Y1209517D1*
Y1600653D1*
X-2778857Y-285780D2*
Y-507533D1*
X-2460803Y-825587D1*
X-2222707D1*
Y-1095490D1*
X-2778857Y-285780D2*
Y205877D1*
X-2635447Y349287D1*
X-2683597Y587437D2*
Y397437D1*
X-2635447Y349287D1*
X-2569130Y1760653D2*
X-2653060D1*
X-2733060Y1680653D1*
X-2778417Y1635297D1*
Y1127243D1*
X-2984813Y920847D1*
Y619190D1*
X-2937183Y571560D1*
X-2873597D1*
Y587437D1*
X-2569130Y1680653D2*
X-2733060D1*
X-2029130Y1460653D2*
Y1635297D1*
X-2189130D1*
Y1460653D1*
X-1949130Y2300653D2*
Y1635297D1*
X-2029130D1*
X-2968937Y-920847D2*
D15*
Y-635067D1*
X-2968857D1*
Y-285780D1*
X-2302117Y-206917D2*
D14*
Y-127013D1*
X-2286240Y-111137D1*
Y952600D1*
X-2029130Y1209710D1*
Y1460653D1*
X-2302117Y-206917D2*
D15*
X-1698283D1*
X-1540037Y-365163D1*
X-1555913D1*
X-1857570Y-206917D2*
X-1698283D1*
X-2968937Y-1260847D2*
Y-1127243D1*
X-2476707D1*
Y-1095490D1*
X-2270363Y1206627D3*
X-3105337Y2906277D2*
D14*
X-3239723Y2771893D1*
X-2963917Y2906277D2*
X-3054107Y2816087D1*
X-2822493Y2906277D2*
X-2931400Y2797373D1*
X-2831920Y2755430D2*
X-2858270Y2729080D1*
X-2115387Y2906277D2*
X-2170293Y2851373D1*
X-2053967Y2826280D2*
X-2170637Y2709607D1*
X-3138450Y1741797D2*
X-3239687Y1640557D1*
X-2050237Y2688587D2*
X-2243903Y2494920D1*
X-1691123Y2906277D2*
X-1703973Y2893427D1*
X-1999897Y2597507D2*
X-2131207Y2466193D1*
X-3224073Y1373327D2*
X-3239687Y1357713D1*
X-1549703Y2906277D2*
X-1692927Y2763053D1*
X-1974623Y2481357D2*
X-1989850Y2466133D1*
X-3160960Y1295020D2*
X-3239687Y1216293D1*
X-1408280Y2906277D2*
X-1763637Y2550923D1*
X-3064217Y1250343D2*
X-3239687Y1074870D1*
X-1266860Y2906277D2*
X-1293590Y2879547D1*
X-2883917Y1289220D2*
X-3239687Y933450D1*
X-1125440Y2906277D2*
X-1161077Y2870640D1*
X-3086383Y945333D2*
X-3239687Y792030D1*
X-3090313Y799980D2*
X-3239717Y650577D1*
X-3090313Y658560D2*
X-3239717Y509157D1*
X-2312360Y1295093D2*
X-2642200Y965253D1*
X-3062140Y545313D2*
X-3239717Y367733D1*
X-2170937Y1295093D2*
X-2534960Y931070D1*
X-3019120Y446910D2*
X-3239717Y226313D1*
X-2391770Y932840D2*
X-2475780Y848830D1*
X-2892683Y431927D2*
X-3239717Y84890D1*
X-2391770Y791417D2*
X-2410597Y772590D1*
X-2796010Y387180D2*
X-3239717Y-56530D1*
X-2391770Y649997D2*
X-2403033Y638733D1*
X-2884327Y157440D2*
X-3239717Y-197950D1*
X-1748053Y1152290D2*
X-1763637Y1136707D1*
X-2391770Y508577D2*
X-2403033Y497313D1*
X-2884327Y16017D2*
X-3030623Y-130280D1*
X-3114343Y-214000D2*
X-3239717Y-339373D1*
X-1677343Y1081580D2*
X-1763633Y995290D1*
X-2391770Y367153D2*
X-2403033Y355890D1*
X-3114343Y-355420D2*
X-3239717Y-480793D1*
X-1606633Y1010870D2*
X-1678627Y938873D1*
X-2391770Y225733D2*
X-2403033Y214470D1*
X-3189337Y-571833D2*
X-3239717Y-622217D1*
X-1788243Y687837D2*
X-1855887Y620193D1*
X-1937950Y538130D2*
X-2069610Y406473D1*
X-2391770Y84310D2*
X-2474883Y1200D1*
X-3187403Y-711323D2*
X-3239717Y-763637D1*
X-1686873Y647787D2*
X-1949733Y384930D1*
X-2452467Y-117807D2*
X-2514037Y-179377D1*
X-3149493Y-814833D2*
X-3239717Y-905057D1*
X-1325930Y867307D2*
X-1432107Y761130D1*
X-1545453Y647787D2*
X-1869630Y323610D1*
X-2123980Y69257D2*
X-2180717Y12523D1*
X-2457647Y-264410D2*
X-2514037Y-320797D1*
X-3149493Y-956253D2*
X-3239717Y-1046480D1*
X-1178710Y873107D2*
X-1819290Y232527D1*
X-2016327Y35490D2*
X-2113250Y-61433D1*
X-2401370Y-349550D2*
X-2498223Y-446407D1*
X-3103227Y-1051410D2*
X-3239717Y-1187900D1*
X-1110520Y799877D2*
X-1637817Y272580D1*
X-1888853Y21543D2*
X-1976040Y-65647D1*
X-2262847Y-352450D2*
X-2427513Y-517117D1*
X-2674060Y-763663D2*
X-2788387Y-877990D1*
X-3149493Y-1239097D2*
X-3239717Y-1329323D1*
X-1110520Y658457D2*
X-1496397Y272580D1*
X-1747433Y21543D2*
X-1830407Y-61433D1*
X-2121427Y-352450D2*
X-2356800Y-587827D1*
X-2657210Y-888237D2*
X-2765737Y-996760D1*
X-3149493Y-1380520D2*
X-3239717Y-1470743D1*
X-1110520Y517033D2*
X-1432107Y195447D1*
X-1646063Y-18510D2*
X-1703970Y-76417D1*
X-1971373Y-343820D2*
X-2252393Y-624840D1*
X-3018913Y-1391360D2*
X-3104927Y-1477373D1*
X-1110520Y375613D2*
X-1432107Y54023D1*
X-1504640Y-18510D2*
X-1602323Y-116193D1*
X-1838583Y-352450D2*
X-2110970Y-624840D1*
X-2743873Y-1257740D2*
X-2788387Y-1302253D1*
X-2877493Y-1391360D2*
X-2963503Y-1477373D1*
X-1110520Y234193D2*
X-1488523Y-143813D1*
X-1777263Y-432553D2*
X-1987227Y-642517D1*
X-2657210Y-1312500D2*
X-2822083Y-1477373D1*
X-1110520Y92770D2*
X-1398270Y-194983D1*
X-1726097Y-522807D2*
X-1915207Y-711917D1*
X-2579320Y-1376030D2*
X-2680663Y-1477373D1*
X-1110520Y-48650D2*
X-1340957Y-279090D1*
X-1642540Y-580673D2*
X-1863347Y-801477D1*
X-2437897Y-1376030D2*
X-2539240Y-1477373D1*
X-1110520Y-190073D2*
X-1283643Y-363197D1*
X-1605460Y-685013D2*
X-1788147Y-867700D1*
X-2296477Y-1376030D2*
X-2397820Y-1477373D1*
X-1110520Y-331493D2*
X-1214657Y-435633D1*
X-1533090Y-754067D2*
X-1788147Y-1009120D1*
X-2155057Y-1376030D2*
X-2256397Y-1477373D1*
X-1110520Y-472917D2*
X-1182617Y-545013D1*
X-1423710Y-786107D2*
X-1788147Y-1150543D1*
X-2013633Y-1376030D2*
X-2114977Y-1477373D1*
X-1110520Y-614337D2*
X-1363607Y-867423D1*
X-1561680Y-1065497D2*
X-1788147Y-1291963D1*
X-1872213Y-1376030D2*
X-1973557Y-1477373D1*
X-1110520Y-755757D2*
X-1238827Y-884067D1*
X-1545037Y-1190277D2*
X-1832133Y-1477373D1*
X-1110520Y-897180D2*
X-1157690Y-944350D1*
X-1484823Y-1271483D2*
X-1690713Y-1477373D1*
X-1391393Y-1319477D2*
X-1549290Y-1477373D1*
X-1110520Y-1180023D2*
X-1130413Y-1199917D1*
X-1229187Y-1298690D2*
X-1407870Y-1477373D1*
X-1110520Y-1321443D2*
X-1266450Y-1477373D1*
X-1110520Y-1462863D2*
X-1125027Y-1477373D1*
X-1244870Y2906277D2*
X-1218070Y2879477D1*
X-1386290Y2906277D2*
X-1356520Y2876510D1*
X-1527713Y2906277D2*
X-1448983Y2827550D1*
X-1669133Y2906277D2*
X-1536890Y2774033D1*
X-1692923Y2788647D2*
X-1607600Y2703323D1*
X-1705353Y2659653D2*
X-1678310Y2632613D1*
X-2093397Y2906277D2*
X-2051060Y2863940D1*
X-1763633Y2576513D2*
X-1749007Y2561887D1*
X-2170013Y2841470D2*
X-2053893Y2725350D1*
X-2170840Y2700880D2*
X-1974620Y2504657D1*
X-2216210Y2604827D2*
X-2077577Y2466193D1*
X-2243900Y2491093D2*
X-2219000Y2466193D1*
X-2941927Y2906277D2*
X-2831917Y2796270D1*
X-3083347Y2906277D2*
X-2991083Y2814017D1*
X-2835687Y2658617D2*
X-2534640Y2357573D1*
X-3224767Y2906277D2*
X-3133817Y2815327D1*
X-1188143Y869650D2*
X-1110520Y792030D1*
X-1327563Y867653D2*
X-1110490Y650577D1*
X-1763637Y1162303D2*
X-1540207Y938873D1*
X-1432110Y830780D2*
X-1110490Y509157D1*
X-1763637Y1020883D2*
X-1681630Y938873D1*
X-1432110Y689357D2*
X-1110490Y367733D1*
X-2179270Y1295093D2*
X-2137173Y1253000D1*
X-1531963Y647787D2*
X-1110490Y226313D1*
X-2320690Y1295093D2*
X-2207887Y1182287D1*
X-1673383Y647787D2*
X-1110490Y84890D1*
X-2462113Y1295093D2*
X-2278597Y1111577D1*
X-1837523Y670507D2*
X-1110490Y-56530D1*
X-3048997Y1740557D2*
X-3031967Y1723530D1*
X-2472607Y1164167D2*
X-2349307Y1040867D1*
X-1883100Y574660D2*
X-1581017Y272580D1*
X-1432110Y123673D2*
X-1110490Y-197950D1*
X-3239687Y1789827D2*
X-3129057Y1679197D1*
X-2538623Y1088763D2*
X-2391773Y941913D1*
X-1972523Y522663D2*
X-1722440Y272580D1*
X-1432110Y-17750D2*
X-1110490Y-339373D1*
X-3239687Y1648407D2*
X-3204187Y1612903D1*
X-2609333Y1018050D2*
X-2391773Y800493D1*
X-2069613Y478330D2*
X-1984153Y392870D1*
X-1839457Y248177D2*
X-1823833Y232550D1*
X-1572773Y-18510D2*
X-1110490Y-480793D1*
X-2980980Y1248277D2*
X-2894827Y1162123D1*
X-2403003Y670300D2*
X-2391797Y659093D1*
X-1754247Y21543D2*
X-1743150Y10447D1*
X-1714140Y-18563D2*
X-1640473Y-92230D1*
X-1182690Y-550013D2*
X-1110490Y-622217D1*
X-3239687Y1365563D2*
X-2965540Y1091413D1*
X-2403003Y528877D2*
X-2391797Y517670D1*
X-1895667Y21543D2*
X-1812693Y-61433D1*
X-1208793Y-665333D2*
X-1110490Y-763637D1*
X-3239687Y1224140D2*
X-3036250Y1020703D1*
X-2403003Y387457D2*
X-2391797Y376250D1*
X-2056423Y40877D2*
X-1952387Y-63160D1*
X-1274117Y-741430D2*
X-1110490Y-905057D1*
X-3239687Y1082720D2*
X-3089973Y933007D1*
X-2403003Y246033D2*
X-2391797Y234827D1*
X-2180720Y23750D2*
X-2095537Y-61433D1*
X-1804517Y-352450D2*
X-1786217Y-370753D1*
X-1373623Y-783343D2*
X-1286230Y-870740D1*
X-3239687Y941300D2*
X-3090320Y791930D1*
X-2411910Y113520D2*
X-2391773Y93383D1*
X-1948493Y-349897D2*
X-1418397Y-879993D1*
X-3239687Y799877D2*
X-3090320Y650507D1*
X-2871737Y431927D2*
X-2796013Y356203D1*
X-2474887Y35077D2*
X-2391773Y-48037D1*
X-2087360Y-352450D2*
X-1502920Y-936893D1*
X-1175027Y-1264783D2*
X-1110490Y-1329323D1*
X-3239687Y658457D2*
X-2858507Y277273D1*
X-2505960Y-75270D2*
X-2456407Y-124823D1*
X-2228780Y-352450D2*
X-1554570Y-1026660D1*
X-1264797Y-1316437D2*
X-1110490Y-1470743D1*
X-3239687Y517033D2*
X-2884333Y161680D1*
X-2514040Y-208613D2*
X-2457583Y-265070D1*
X-2370203Y-352450D2*
X-2097813Y-624840D1*
X-1788150Y-934503D2*
X-1548910Y-1173743D1*
X-1411880Y-1310773D2*
X-1245280Y-1477373D1*
X-3239687Y375613D2*
X-2884333Y20257D1*
X-2514040Y-350033D2*
X-2239237Y-624840D1*
X-1788150Y-1075923D2*
X-1386703Y-1477373D1*
X-3239687Y234193D2*
X-2884333Y-121163D1*
X-1788150Y-1217347D2*
X-1528123Y-1477373D1*
X-3239687Y92770D2*
X-3016640Y-130280D1*
X-1788150Y-1358767D2*
X-1669543Y-1477373D1*
X-3239687Y-48650D2*
X-3109100Y-179237D1*
X-1912310Y-1376030D2*
X-1810967Y-1477373D1*
X-3239687Y-190073D2*
X-3114350Y-315410D1*
X-2053730Y-1376030D2*
X-1952387Y-1477373D1*
X-3239687Y-331493D2*
X-3115730Y-455450D1*
X-2789287Y-781893D2*
X-2657217Y-913967D1*
X-2195150Y-1376030D2*
X-2093810Y-1477373D1*
X-3239687Y-472917D2*
X-3177740Y-534863D1*
X-2788390Y-924213D2*
X-2715843Y-996760D1*
X-2336573Y-1376030D2*
X-2235230Y-1477373D1*
X-3239687Y-614337D2*
X-3198043Y-655983D1*
X-2477993Y-1376030D2*
X-2376650Y-1477373D1*
X-3239687Y-755757D2*
X-3149497Y-845950D1*
X-2737703Y-1257740D2*
X-2657217Y-1338230D1*
X-2619417Y-1376030D2*
X-2518073Y-1477373D1*
X-3239687Y-897180D2*
X-3149497Y-987370D1*
X-2788390Y-1348477D2*
X-2659493Y-1477373D1*
X-3239687Y-1038600D2*
X-3147977Y-1130310D1*
X-2886930Y-1391360D2*
X-2800917Y-1477373D1*
X-3239687Y-1180023D2*
X-3149497Y-1270213D1*
X-3028350Y-1391360D2*
X-2942337Y-1477373D1*
X-3239687Y-1321443D2*
X-3083757Y-1477373D1*
X-3239687Y-1462863D2*
X-3225180Y-1477373D1*
X-1714667Y935313D2*
X-1456757D1*
X-1464687Y945853D1*
X-1500410Y946173D1*
X-1516217Y948677D1*
X-1531440Y953623D1*
X-1545703Y960890D1*
X-1558650Y970297D1*
X-1617563Y1028767D1*
X-1767203Y1178407D1*
X-1767443Y948913D1*
X-1769947Y933107D1*
X-1774893Y917883D1*
X-1782160Y903623D1*
X-1787210Y896200D1*
X-1780720Y895313D1*
X-1739607D1*
X-1739667Y935313D1*
X-1714667D1*
X-1435667Y913730D2*
Y651313D1*
X-1739667D1*
Y691253D1*
X-1839523Y691313D1*
X-1841517Y670883D1*
X-1848000Y643877D1*
X-1858630Y618217D1*
X-1873140Y594537D1*
X-1891180Y573417D1*
X-1912300Y555377D1*
X-1935980Y540867D1*
X-1961640Y530237D1*
X-1988647Y523753D1*
X-2016337Y521573D1*
X-2044027Y523753D1*
X-2071033Y530237D1*
X-2073120Y531007D1*
X-2073103Y391397D1*
X-2067140Y385573D1*
X-2044027Y390793D1*
X-2016337Y392973D1*
X-1988647Y390793D1*
X-1961640Y384310D1*
X-1935980Y373680D1*
X-1912300Y359170D1*
X-1891180Y341130D1*
X-1873140Y320010D1*
X-1858630Y296330D1*
X-1848000Y270670D1*
X-1841517Y243663D1*
X-1839847Y228940D1*
X-1739590Y229013D1*
X-1739667Y269013D1*
X-1435667D1*
Y-14987D1*
X-1739667D1*
Y24953D1*
X-1944957Y25327D1*
X-1960763Y27830D1*
X-1975987Y32777D1*
X-1990247Y40043D1*
X-2016337Y38973D1*
X-2044027Y41153D1*
X-2071033Y47637D1*
X-2096693Y58267D1*
X-2120373Y72777D1*
X-2141493Y90817D1*
X-2159533Y111937D1*
X-2174043Y135617D1*
X-2184280Y160207D1*
X-2184240Y-70740D1*
X-2172817Y-67043D1*
X-2160880Y-65153D1*
X-2004847Y-64917D1*
X-1992800Y-65863D1*
X-1981053Y-68687D1*
X-1969003Y-73807D1*
X-1956360Y-68683D1*
X-1944613Y-65863D1*
X-1932567Y-64917D1*
X-1776533Y-65153D1*
X-1764597Y-67043D1*
X-1753107Y-70777D1*
X-1742340Y-76263D1*
X-1736887Y-79960D1*
X-1688320Y-80307D1*
X-1668637Y-83427D1*
X-1649683Y-89583D1*
X-1631927Y-98630D1*
X-1615803Y-110347D1*
X-1585487Y-140110D1*
X-1555913Y-138163D1*
X-1538103Y-138863D1*
X-1520403Y-140957D1*
X-1502920Y-144437D1*
X-1485767Y-149273D1*
X-1469043Y-155443D1*
X-1452857Y-162903D1*
X-1437307Y-171613D1*
X-1422487Y-181517D1*
X-1408490Y-192550D1*
X-1395400Y-204650D1*
X-1383300Y-217740D1*
X-1372267Y-231737D1*
X-1362363Y-246557D1*
X-1353653Y-262107D1*
X-1346193Y-278293D1*
X-1340023Y-295017D1*
X-1335187Y-312170D1*
X-1331707Y-329653D1*
X-1329963Y-344380D1*
X-1309967Y-353423D1*
X-1294417Y-362133D1*
X-1279597Y-372037D1*
X-1265600Y-383070D1*
X-1252510Y-395170D1*
X-1240410Y-408260D1*
X-1229377Y-422257D1*
X-1219473Y-437077D1*
X-1210763Y-452627D1*
X-1203303Y-468813D1*
X-1197133Y-485537D1*
X-1192297Y-502690D1*
X-1188817Y-520173D1*
X-1186723Y-537873D1*
X-1186023Y-555683D1*
X-1186723Y-573493D1*
X-1188817Y-591193D1*
X-1192297Y-608677D1*
X-1197133Y-625830D1*
X-1203303Y-642553D1*
X-1210763Y-658740D1*
X-1219473Y-674290D1*
X-1229377Y-689110D1*
X-1240410Y-703107D1*
X-1252510Y-716197D1*
X-1265600Y-728297D1*
X-1279597Y-739330D1*
X-1294417Y-749233D1*
X-1309967Y-757943D1*
X-1326153Y-765403D1*
X-1342877Y-771573D1*
X-1360030Y-776410D1*
X-1377513Y-779890D1*
X-1395213Y-781983D1*
X-1413023Y-782683D1*
X-1430833Y-781983D1*
X-1448533Y-779890D1*
X-1466017Y-776410D1*
X-1483170Y-771573D1*
X-1499893Y-765403D1*
X-1516080Y-757943D1*
X-1531630Y-749233D1*
X-1546450Y-739330D1*
X-1560447Y-728297D1*
X-1573537Y-716197D1*
X-1585637Y-703107D1*
X-1596670Y-689110D1*
X-1606573Y-674290D1*
X-1615283Y-658740D1*
X-1622743Y-642553D1*
X-1628913Y-625830D1*
X-1633750Y-608677D1*
X-1637230Y-591193D1*
X-1638973Y-576467D1*
X-1658970Y-567423D1*
X-1674520Y-558713D1*
X-1689340Y-548810D1*
X-1703337Y-537777D1*
X-1716427Y-525677D1*
X-1728527Y-512587D1*
X-1739560Y-498590D1*
X-1749463Y-483770D1*
X-1758173Y-468220D1*
X-1765633Y-452033D1*
X-1771803Y-435310D1*
X-1776640Y-418157D1*
X-1780120Y-400673D1*
X-1782213Y-382973D1*
X-1782913Y-365163D1*
X-1782573Y-348917D1*
X-1783400Y-348883D1*
X-1938607Y-348680D1*
X-1950543Y-346790D1*
X-1962033Y-343057D1*
X-1968410Y-340027D1*
X-1981053Y-345147D1*
X-1992800Y-347970D1*
X-2004847Y-348917D1*
X-2160880Y-348680D1*
X-2172817Y-346790D1*
X-2184307Y-343057D1*
X-2190683Y-340027D1*
X-2203327Y-345147D1*
X-2215073Y-347970D1*
X-2227120Y-348917D1*
X-2383153Y-348680D1*
X-2395090Y-346790D1*
X-2406580Y-343057D1*
X-2417347Y-337570D1*
X-2427120Y-330467D1*
X-2435663Y-321923D1*
X-2442767Y-312150D1*
X-2448253Y-301383D1*
X-2451987Y-289893D1*
X-2453877Y-277957D1*
X-2454113Y-141917D1*
X-2453167Y-129870D1*
X-2450343Y-118123D1*
X-2445720Y-106960D1*
X-2439407Y-96657D1*
X-2431560Y-87470D1*
X-2422373Y-79623D1*
X-2412070Y-73310D1*
X-2400907Y-68687D1*
X-2388197Y-65750D1*
X-2387927Y960603D1*
X-2385423Y976410D1*
X-2380477Y991633D1*
X-2373210Y1005897D1*
X-2363800Y1018843D1*
X-2305333Y1077757D1*
X-2131110Y1251980D1*
X-2131130Y1298750D1*
X-2451130D1*
X-2467070Y1298653D1*
X-2467443Y1201513D1*
X-2469947Y1185707D1*
X-2474893Y1170483D1*
X-2482160Y1156223D1*
X-2491570Y1143273D1*
X-2550037Y1084360D1*
X-2672483Y961713D1*
X-2538483D1*
Y898920D1*
X-2527947Y892233D1*
X-2515777Y881837D1*
X-2430953Y796570D1*
X-2421543Y783620D1*
X-2414277Y769360D1*
X-2409330Y754137D1*
X-2406827Y738330D1*
X-2406513Y655327D1*
X-2406827Y150763D1*
X-2409330Y134957D1*
X-2414277Y119733D1*
X-2421543Y105473D1*
X-2430953Y92523D1*
X-2478443Y44587D1*
X-2478447Y-71740D1*
X-2517607D1*
X-2517570Y-434133D1*
X-2323367Y-628333D1*
X-2040087Y-628640D1*
X-2024280Y-631143D1*
X-2009057Y-636090D1*
X-1994793Y-643357D1*
X-1981847Y-652763D1*
X-1922933Y-711233D1*
X-1891143Y-743467D1*
X-1881737Y-756413D1*
X-1874470Y-770677D1*
X-1869523Y-785900D1*
X-1867020Y-801707D1*
X-1866707Y-818400D1*
X-1791707Y-818490D1*
Y-1372490D1*
X-2653707D1*
Y-1254230D1*
X-2791843Y-1254243D1*
X-2791937Y-1387847D1*
X-3145937D1*
Y-1133847D1*
X-3095840D1*
X-3095547Y-1117280D1*
X-3092427Y-1097597D1*
X-3086270Y-1078643D1*
X-3077223Y-1060887D1*
X-3071080Y-1051830D1*
X-3091937Y-1047847D1*
X-3145937D1*
Y-793847D1*
X-3130997D1*
X-3141470Y-782490D1*
X-3152503Y-768493D1*
X-3162407Y-753673D1*
X-3171117Y-738123D1*
X-3178577Y-721937D1*
X-3184747Y-705213D1*
X-3189583Y-688060D1*
X-3193063Y-670577D1*
X-3195157Y-652877D1*
X-3195857Y-635067D1*
X-3195157Y-617257D1*
X-3193063Y-599557D1*
X-3189583Y-582073D1*
X-3184747Y-564920D1*
X-3178577Y-548197D1*
X-3171117Y-532010D1*
X-3162407Y-516460D1*
X-3152503Y-501640D1*
X-3141470Y-487643D1*
X-3129370Y-474553D1*
X-3116280Y-462453D1*
X-3095857Y-447127D1*
X-3096150Y-406040D1*
X-3102463Y-395737D1*
X-3107087Y-384573D1*
X-3109910Y-372827D1*
X-3110857Y-360780D1*
X-3110620Y-204740D1*
X-3108730Y-192803D1*
X-3104997Y-181313D1*
X-3099510Y-170547D1*
X-3092407Y-160773D1*
X-3083863Y-152230D1*
X-3074090Y-145127D1*
X-3063323Y-139640D1*
X-3051833Y-135907D1*
X-3039897Y-134017D1*
X-2903857Y-133780D1*
X-2891810Y-134727D1*
X-2884903Y-136183D1*
X-2880857Y-135780D1*
X-2880543Y213880D1*
X-2878040Y229687D1*
X-2873093Y244910D1*
X-2865827Y259170D1*
X-2856417Y272120D1*
X-2792493Y336490D1*
X-2792447Y435510D1*
X-3015597Y435437D1*
Y505847D1*
X-3062373Y552947D1*
X-3071783Y565897D1*
X-3079050Y580157D1*
X-3083997Y595380D1*
X-3086500Y611187D1*
X-3086813Y694190D1*
X-3086500Y928850D1*
X-3083997Y944657D1*
X-3079050Y959880D1*
X-3071783Y974140D1*
X-3062373Y987090D1*
X-3003907Y1046003D1*
X-2880370Y1169540D1*
X-2880417Y1294920D1*
X-2897960Y1282980D1*
X-2913510Y1274270D1*
X-2929697Y1266810D1*
X-2946420Y1260640D1*
X-2963573Y1255803D1*
X-2981057Y1252323D1*
X-2998757Y1250230D1*
X-3016567Y1249530D1*
X-3034377Y1250230D1*
X-3052077Y1252323D1*
X-3069560Y1255803D1*
X-3086713Y1260640D1*
X-3103437Y1266810D1*
X-3119623Y1274270D1*
X-3135173Y1282980D1*
X-3149993Y1292883D1*
X-3163990Y1303917D1*
X-3177080Y1316017D1*
X-3189180Y1329107D1*
X-3200213Y1343103D1*
X-3210117Y1357923D1*
X-3218827Y1373473D1*
X-3226287Y1389660D1*
X-3232457Y1406383D1*
X-3237293Y1423537D1*
X-3240773Y1441020D1*
X-3243257Y1468670D1*
X-3243223Y-1480913D1*
X-1106983D1*
X-1107520Y-1115463D1*
X-1111087Y-1140197D1*
X-1117347Y-1164387D1*
X-1126230Y-1187740D1*
X-1137627Y-1209980D1*
X-1151397Y-1230830D1*
X-1167377Y-1250040D1*
X-1185370Y-1267377D1*
X-1205160Y-1282630D1*
X-1226507Y-1295620D1*
X-1249153Y-1306180D1*
X-1272820Y-1314190D1*
X-1297227Y-1319550D1*
X-1322073Y-1322197D1*
X-1347060Y-1322093D1*
X-1371887Y-1319243D1*
X-1396247Y-1313687D1*
X-1419850Y-1305483D1*
X-1442407Y-1294737D1*
X-1463647Y-1281573D1*
X-1483313Y-1266157D1*
X-1501163Y-1248673D1*
X-1516983Y-1229333D1*
X-1530583Y-1208370D1*
X-1541797Y-1186040D1*
X-1550490Y-1162613D1*
X-1556553Y-1138373D1*
X-1559917Y-1113613D1*
X-1560537Y-1088633D1*
X-1558407Y-1063737D1*
X-1553557Y-1039223D1*
X-1546040Y-1015393D1*
X-1535950Y-992533D1*
X-1523407Y-970923D1*
X-1508567Y-950820D1*
X-1491607Y-932470D1*
X-1472733Y-916097D1*
X-1452173Y-901893D1*
X-1430177Y-890040D1*
X-1407010Y-880673D1*
X-1382957Y-873913D1*
X-1358303Y-869833D1*
X-1333353Y-868490D1*
X-1308403Y-869897D1*
X-1283763Y-874037D1*
X-1259727Y-880860D1*
X-1236583Y-890287D1*
X-1214617Y-902197D1*
X-1194093Y-916450D1*
X-1175260Y-932870D1*
X-1158347Y-951263D1*
X-1143557Y-971403D1*
X-1131070Y-993047D1*
X-1121037Y-1015933D1*
X-1113583Y-1039783D1*
X-1108793Y-1064307D1*
X-1106983Y-1080913D1*
Y911763D1*
X-1127650Y896943D1*
X-1152400Y884333D1*
X-1178813Y875750D1*
X-1206247Y871407D1*
X-1270133Y870860D1*
X-1334020Y871407D1*
X-1361453Y875750D1*
X-1387867Y884333D1*
X-1412617Y896943D1*
X-1435087Y913267D1*
X-1435683Y913820D1*
X-2806580Y-793847D2*
X-2791937D1*
Y-1000193D1*
X-2653800Y-1000243D1*
X-2653707Y-818490D1*
X-2612007D1*
X-2747063Y-683577D1*
X-2752967Y-705213D1*
X-2759137Y-721937D1*
X-2766597Y-738123D1*
X-2775307Y-753673D1*
X-2785210Y-768493D1*
X-2796243Y-782490D1*
X-2806783Y-793893D1*
X-3114143Y1744080D2*
X-3141887Y1746257D1*
X-3168893Y1752740D1*
X-3194553Y1763370D1*
X-3218233Y1777880D1*
X-3239353Y1795920D1*
X-3243223Y1800103D1*
X-3242867Y1494340D1*
X-3240773Y1512040D1*
X-3237293Y1529523D1*
X-3232457Y1546677D1*
X-3226287Y1563400D1*
X-3218827Y1579587D1*
X-3210117Y1595137D1*
X-3200213Y1609957D1*
X-3189180Y1623953D1*
X-3177080Y1637043D1*
X-3163990Y1649143D1*
X-3149993Y1660177D1*
X-3135173Y1670080D1*
X-3119623Y1678790D1*
X-3103437Y1686250D1*
X-3086713Y1692420D1*
X-3069560Y1697257D1*
X-3047167Y1701317D1*
X-3004100Y1744383D1*
X-3114197Y1744173D1*
X-2050443Y2828363D2*
X-2048267Y2856107D1*
X-2041783Y2883113D1*
X-2031153Y2908773D1*
X-2030543Y2909863D1*
X-2192627Y2909813D1*
X-2186220Y2896150D1*
X-2177637Y2869737D1*
X-2173293Y2842303D1*
X-2172747Y2778417D1*
X-2173293Y2714530D1*
X-2177637Y2687097D1*
X-2186220Y2660683D1*
X-2198830Y2635933D1*
X-2215153Y2613463D1*
X-2234793Y2593823D1*
X-2247560Y2583983D1*
X-2247130Y2462557D1*
X-2007130D1*
X-1971150Y2462653D1*
X-1971130Y2580830D1*
X-1988400Y2593823D1*
X-2008040Y2613463D1*
X-2024363Y2635933D1*
X-2036973Y2660683D1*
X-2045557Y2687097D1*
X-2049900Y2714530D1*
X-2050447Y2778417D1*
X-2050350Y2828417D1*
X-1716350Y2909863D2*
X-1709920Y2896150D1*
X-1701337Y2869737D1*
X-1696993Y2842303D1*
X-1696447Y2778417D1*
X-1696993Y2714530D1*
X-1701337Y2687097D1*
X-1709920Y2660683D1*
X-1722530Y2635933D1*
X-1738853Y2613463D1*
X-1758493Y2593823D1*
X-1767150Y2587003D1*
X-1767130Y2536697D1*
X-1511020Y2792470D1*
X-1498070Y2801880D1*
X-1483810Y2809147D1*
X-1468587Y2814093D1*
X-1452437Y2816610D1*
X-1435087Y2833627D1*
X-1412617Y2849950D1*
X-1387867Y2862560D1*
X-1361453Y2871143D1*
X-1334020Y2875487D1*
X-1270133Y2876033D1*
X-1206247Y2875487D1*
X-1178813Y2871143D1*
X-1152400Y2862560D1*
X-1127650Y2849950D1*
X-1106930Y2835003D1*
X-1106983Y2909813D1*
X-1716260D1*
X-2828400Y2828363D2*
X-2826223Y2856107D1*
X-2819740Y2883113D1*
X-2809110Y2908773D1*
X-2808500Y2909863D1*
X-3243223Y2909813D1*
Y2756787D1*
X-3229150Y2770120D1*
X-3206680Y2786443D1*
X-3181930Y2799053D1*
X-3155517Y2807637D1*
X-3128083Y2811980D1*
X-3064197Y2812527D1*
X-3000310Y2811980D1*
X-2972877Y2807637D1*
X-2946463Y2799053D1*
X-2921713Y2786443D1*
X-2899243Y2770120D1*
X-2879603Y2750480D1*
X-2863280Y2728010D1*
X-2850670Y2703260D1*
X-2842087Y2676847D1*
X-2837743Y2649413D1*
X-2826100Y2636940D1*
X-2531173Y2342013D1*
X-2531130Y2355243D1*
X-2728967Y2553407D1*
X-2738373Y2566353D1*
X-2742693Y2574223D1*
X-2766357Y2593823D1*
X-2785997Y2613463D1*
X-2802320Y2635933D1*
X-2814930Y2660683D1*
X-2823513Y2687097D1*
X-2827857Y2714530D1*
X-2828403Y2778417D1*
Y2828320D1*
X-1494083Y-935047D2*
X-1173197Y-1255933D1*
Y-935047D2*
X-1494083Y-1255933D1*
D17*
X-1587667Y603313D3*
Y793313D3*
Y317013D3*
Y127013D3*
D63*
X-2302117Y-396917D3*
Y-206917D3*
X-2079843Y-396917D3*
Y-206917D3*
X-1857570Y-396917D3*
Y-206917D3*
D19*
X-2968937Y-920847D3*
Y-1260847D3*
D20*
X-2635447Y349287D3*
X-2915447D3*
X-2635447Y95260D3*
X-2915447D3*
D21*
X-3064197Y1921077D3*
D22*
X-1873447Y2778417D3*
D23*
X-2476707Y-1095490D3*
D21*
X-1270133Y1286010D3*
D23*
X-2222707Y-1095490D3*
D22*
X-2651403Y2778417D3*
D24*
X-2968857Y-635067D3*
D23*
X-1968707Y-1095490D3*
D21*
X-1270133Y1762310D3*
D23*
X-1714707Y-1095490D3*
D22*
X-2349747Y2778417D3*
D21*
X-1270133Y2222733D3*
Y1047860D3*
X-3064197Y2159227D3*
X-1270133Y2460883D3*
X-3064197Y2397377D3*
X-1270133Y1524160D3*
D25*
X-1555913Y-365163D3*
D21*
X-3064197Y2635527D3*
X-1270133Y2000460D3*
Y2699033D3*
D24*
X-3016567Y1476530D3*
D15*
X-2190980Y2572020D3*
D66*
X-2968857Y-285780D3*
X-2778857D3*
D26*
X-2873597Y587437D3*
X-2683597D3*
X-2870483Y809713D3*
X-2680483D3*
D28*
X-2429130Y1460653D3*
X-2349130D3*
X-2269130D3*
X-2189130D3*
X-2109130D3*
X-2029130D3*
X-1949130D3*
X-1869130D3*
D29*
X-1729130Y1600653D3*
Y1680653D3*
Y1760653D3*
Y1840653D3*
Y1920653D3*
Y2000653D3*
Y2080653D3*
Y2160653D3*
D28*
X-1869130Y2300653D3*
X-1949130D3*
X-2029130D3*
X-2109130D3*
X-2189130D3*
X-2269130D3*
X-2349130D3*
X-2429130D3*
D29*
X-2569130Y2160653D3*
Y2080653D3*
Y2000653D3*
Y1920653D3*
Y1840653D3*
Y1760653D3*
Y1680653D3*
Y1600653D3*
D30*
X-2016337Y698573D3*
Y215973D3*
D25*
X-1413023Y-555683D3*
X-1333640Y-1095490D3*
M02*
